%TF.GenerationSoftware,KiCad,Pcbnew,8.0.7*%
%TF.CreationDate,2025-01-04T10:34:35-05:00*%
%TF.ProjectId,Cantor_MX,43616e74-6f72-45f4-9d58-2e6b69636164,rev1.6*%
%TF.SameCoordinates,PX78114e0PY44b6550*%
%TF.FileFunction,Soldermask,Bot*%
%TF.FilePolarity,Negative*%
%FSLAX46Y46*%
G04 Gerber Fmt 4.6, Leading zero omitted, Abs format (unit mm)*
G04 Created by KiCad (PCBNEW 8.0.7) date 2025-01-04 10:34:35*
%MOMM*%
%LPD*%
G01*
G04 APERTURE LIST*
G04 Aperture macros list*
%AMHorizOval*
0 Thick line with rounded ends*
0 $1 width*
0 $2 $3 position (X,Y) of the first rounded end (center of the circle)*
0 $4 $5 position (X,Y) of the second rounded end (center of the circle)*
0 Add line between two ends*
20,1,$1,$2,$3,$4,$5,0*
0 Add two circle primitives to create the rounded ends*
1,1,$1,$2,$3*
1,1,$1,$4,$5*%
%AMFreePoly0*
4,1,28,-0.850000,0.400000,0.000000,1.250000,0.114750,1.242219,0.293119,1.197860,0.457783,1.116195,0.601041,1.001041,0.716195,0.857783,0.797860,0.693119,0.842219,0.514750,0.850000,0.400000,0.850000,-0.400000,0.842219,-0.514750,0.797860,-0.693119,0.716195,-0.857783,0.601041,-1.001041,0.457783,-1.116195,0.293119,-1.197860,0.114750,-1.242219,0.000000,-1.250000,-0.114750,-1.242219,
-0.293119,-1.197860,-0.457783,-1.116195,-0.601041,-1.001041,-0.716195,-0.857783,-0.797860,-0.693119,-0.842219,-0.514750,-0.850000,-0.400000,-0.850000,0.400000,-0.850000,0.400000,$1*%
%AMFreePoly1*
4,1,28,-0.850000,0.400000,-0.842219,0.514750,-0.797860,0.693119,-0.716195,0.857783,-0.601041,1.001041,-0.457783,1.116195,-0.293119,1.197860,-0.114750,1.242219,0.000000,1.250000,0.114750,1.242219,0.293119,1.197860,0.457783,1.116195,0.601041,1.001041,0.716195,0.857783,0.797860,0.693119,0.842219,0.514750,0.850000,0.400000,0.850000,-0.400000,0.842219,-0.514750,0.797860,-0.693119,
0.716195,-0.857783,0.601041,-1.001041,0.457783,-1.116195,0.293119,-1.197860,0.114750,-1.242219,0.000000,-1.250000,-0.850000,-0.400000,-0.850000,0.400000,-0.850000,0.400000,$1*%
G04 Aperture macros list end*
%ADD10C,1.800000*%
%ADD11C,1.700000*%
%ADD12C,4.900000*%
%ADD13O,2.200000X1.600000*%
%ADD14C,2.400000*%
%ADD15O,2.200000X1.500000*%
%ADD16HorizOval,1.500000X1.449945X0.012653X-1.449945X-0.012653X0*%
%ADD17HorizOval,1.600000X0.298858X0.026147X-0.298858X-0.026147X0*%
%ADD18HorizOval,1.500000X0.348668X0.030505X-0.348668X-0.030505X0*%
%ADD19HorizOval,1.500000X1.443324X0.138976X-1.443324X-0.138976X0*%
%ADD20C,1.200000*%
%ADD21FreePoly0,270.000000*%
%ADD22FreePoly1,270.000000*%
%ADD23O,2.500000X1.700000*%
%ADD24HorizOval,1.600000X0.271892X-0.126785X-0.271892X0.126785X0*%
%ADD25HorizOval,1.500000X0.317208X-0.147916X-0.317208X0.147916X0*%
%ADD26HorizOval,1.500000X1.319444X-0.601305X-1.319444X0.601305X0*%
%ADD27R,1.700000X1.700000*%
%ADD28C,4.400000*%
%ADD29HorizOval,1.600000X0.295442X-0.052094X-0.295442X0.052094X0*%
%ADD30HorizOval,1.500000X0.344683X-0.060777X-0.344683X0.060777X0*%
%ADD31HorizOval,1.500000X1.430114X-0.239319X-1.430114X0.239319X0*%
%TA.AperFunction,Profile*%
%ADD32C,0.100000*%
%TD*%
G04 APERTURE END LIST*
D10*
%TO.C,K25*%
X32600000Y-26050000D03*
X32600000Y-26050000D03*
D11*
X33020000Y-26050000D03*
X33020000Y-26050000D03*
D12*
X38100000Y-26050000D03*
X38100000Y-26050000D03*
D11*
X43180000Y-26050000D03*
X43180000Y-26050000D03*
D10*
X43600000Y-26050000D03*
X43600000Y-26050000D03*
D13*
X33000000Y-29950000D03*
D14*
X34290000Y-23510000D03*
D15*
X38100000Y-31950000D03*
D14*
X40640000Y-20970000D03*
D16*
X42000042Y-20509599D03*
%TD*%
D10*
%TO.C,K24*%
X13550000Y-24050000D03*
X13550000Y-24050000D03*
D11*
X13970000Y-24050000D03*
X13970000Y-24050000D03*
D12*
X19050000Y-24050000D03*
X19050000Y-24050000D03*
D11*
X24130000Y-24050000D03*
X24130000Y-24050000D03*
D10*
X24550000Y-24050000D03*
X24550000Y-24050000D03*
D13*
X13950000Y-27950000D03*
D14*
X15240000Y-21510000D03*
D15*
X19050000Y-29950000D03*
D14*
X21590000Y-18970000D03*
D16*
X22950042Y-18509599D03*
%TD*%
D10*
%TO.C,K21*%
X-43600000Y-36050000D03*
X-43600000Y-36050000D03*
D11*
X-43180000Y-36050000D03*
X-43180000Y-36050000D03*
D12*
X-38100000Y-36050000D03*
X-38100000Y-36050000D03*
D11*
X-33020000Y-36050000D03*
X-33020000Y-36050000D03*
D10*
X-32600000Y-36050000D03*
X-32600000Y-36050000D03*
D13*
X-43200000Y-39950000D03*
D14*
X-41910000Y-33510000D03*
D15*
X-38100000Y-41950000D03*
D14*
X-35560000Y-30970000D03*
D16*
X-34199958Y-30509599D03*
%TD*%
D10*
%TO.C,K02*%
X-24550000Y14050000D03*
X-24550000Y14050000D03*
D11*
X-24130000Y14050000D03*
X-24130000Y14050000D03*
D12*
X-19050000Y14050000D03*
X-19050000Y14050000D03*
D11*
X-13970000Y14050000D03*
X-13970000Y14050000D03*
D10*
X-13550000Y14050000D03*
X-13550000Y14050000D03*
D13*
X-24150000Y10150000D03*
D14*
X-22860000Y16590000D03*
D15*
X-19050000Y8150000D03*
D14*
X-16510000Y19130000D03*
D16*
X-15149958Y19590401D03*
%TD*%
D10*
%TO.C,K10*%
X-62650000Y-17000000D03*
X-62650000Y-17000000D03*
D11*
X-62230000Y-17000000D03*
X-62230000Y-17000000D03*
D12*
X-57150000Y-17000000D03*
X-57150000Y-17000000D03*
D11*
X-52070000Y-17000000D03*
X-52070000Y-17000000D03*
D10*
X-51650000Y-17000000D03*
X-51650000Y-17000000D03*
D13*
X-62250000Y-20900000D03*
D14*
X-60960000Y-14460000D03*
D15*
X-57150000Y-22900000D03*
D14*
X-54610000Y-11920000D03*
D16*
X-53249958Y-11459599D03*
%TD*%
D10*
%TO.C,K04*%
X13550000Y14050000D03*
X13550000Y14050000D03*
D11*
X13970000Y14050000D03*
X13970000Y14050000D03*
D12*
X19050000Y14050000D03*
X19050000Y14050000D03*
D11*
X24130000Y14050000D03*
X24130000Y14050000D03*
D10*
X24550000Y14050000D03*
X24550000Y14050000D03*
D13*
X13950000Y10150000D03*
D14*
X15240000Y16590000D03*
D15*
X19050000Y8150000D03*
D14*
X21590000Y19130000D03*
D16*
X22950042Y19590401D03*
%TD*%
D10*
%TO.C,K12*%
X-24550000Y-5000000D03*
X-24550000Y-5000000D03*
D11*
X-24130000Y-5000000D03*
X-24130000Y-5000000D03*
D12*
X-19050000Y-5000000D03*
X-19050000Y-5000000D03*
D11*
X-13970000Y-5000000D03*
X-13970000Y-5000000D03*
D10*
X-13550000Y-5000000D03*
X-13550000Y-5000000D03*
D13*
X-24150000Y-8900000D03*
D14*
X-22860000Y-2460000D03*
D15*
X-19050000Y-10900000D03*
D14*
X-16510000Y80000D03*
D16*
X-15149958Y540401D03*
%TD*%
D10*
%TO.C,K30*%
X9420929Y-47629357D03*
X9420929Y-47629357D03*
D11*
X9839331Y-47592751D03*
X9839331Y-47592751D03*
D12*
X14900000Y-47150000D03*
X14900000Y-47150000D03*
D11*
X19960669Y-46707249D03*
X19960669Y-46707249D03*
D10*
X20379071Y-46670643D03*
X20379071Y-46670643D03*
D17*
X10159314Y-51479654D03*
D14*
X10883123Y-44951729D03*
D18*
X15414219Y-53027549D03*
D14*
X16987583Y-41867955D03*
D19*
X18302323Y-41290771D03*
%TD*%
D10*
%TO.C,K01*%
X-43600000Y2050000D03*
X-43600000Y2050000D03*
D11*
X-43180000Y2050000D03*
X-43180000Y2050000D03*
D12*
X-38100000Y2050000D03*
X-38100000Y2050000D03*
D11*
X-33020000Y2050000D03*
X-33020000Y2050000D03*
D10*
X-32600000Y2050000D03*
X-32600000Y2050000D03*
D13*
X-43200000Y-1850000D03*
D14*
X-41910000Y4590000D03*
D15*
X-38100000Y-3850000D03*
D14*
X-35560000Y7130000D03*
D16*
X-34199958Y7590401D03*
%TD*%
D10*
%TO.C,K14*%
X13550000Y-5000000D03*
X13550000Y-5000000D03*
D11*
X13970000Y-5000000D03*
X13970000Y-5000000D03*
D12*
X19050000Y-5000000D03*
X19050000Y-5000000D03*
D11*
X24130000Y-5000000D03*
X24130000Y-5000000D03*
D10*
X24550000Y-5000000D03*
X24550000Y-5000000D03*
D13*
X13950000Y-8900000D03*
D14*
X15240000Y-2460000D03*
D15*
X19050000Y-10900000D03*
D14*
X21590000Y80000D03*
D16*
X22950042Y540401D03*
%TD*%
D10*
%TO.C,K23*%
X-5500000Y-19050000D03*
X-5500000Y-19050000D03*
D11*
X-5080000Y-19050000D03*
X-5080000Y-19050000D03*
D12*
X0Y-19050000D03*
X0Y-19050000D03*
D11*
X5080000Y-19050000D03*
X5080000Y-19050000D03*
D10*
X5500000Y-19050000D03*
X5500000Y-19050000D03*
D13*
X-5100000Y-22950000D03*
D14*
X-3810000Y-16510000D03*
D15*
X0Y-24950000D03*
D14*
X2540000Y-13970000D03*
D16*
X3900042Y-13509599D03*
%TD*%
D10*
%TO.C,K03*%
X-5500000Y19050000D03*
X-5500000Y19050000D03*
D11*
X-5080000Y19050000D03*
X-5080000Y19050000D03*
D12*
X0Y19050000D03*
X0Y19050000D03*
D11*
X5080000Y19050000D03*
X5080000Y19050000D03*
D10*
X5500000Y19050000D03*
X5500000Y19050000D03*
D13*
X-5100000Y15150000D03*
D14*
X-3810000Y21590000D03*
D15*
X0Y13150000D03*
D14*
X2540000Y24130000D03*
D16*
X3900042Y24590401D03*
%TD*%
D10*
%TO.C,K22*%
X-24550000Y-24050000D03*
X-24550000Y-24050000D03*
D11*
X-24130000Y-24050000D03*
X-24130000Y-24050000D03*
D12*
X-19050000Y-24050000D03*
X-19050000Y-24050000D03*
D11*
X-13970000Y-24050000D03*
X-13970000Y-24050000D03*
D10*
X-13550000Y-24050000D03*
X-13550000Y-24050000D03*
D13*
X-24150000Y-27950000D03*
D14*
X-22860000Y-21510000D03*
D15*
X-19050000Y-29950000D03*
D14*
X-16510000Y-18970000D03*
D16*
X-15149958Y-18509599D03*
%TD*%
D20*
%TO.C,J1*%
X73460000Y-34320000D03*
X66460000Y-34320000D03*
X73460000Y-36070000D03*
X66460000Y-36070000D03*
D21*
X63160000Y-33970000D03*
D22*
X64660000Y-38170000D03*
D23*
X71660000Y-38170000D03*
X68660000Y-38170000D03*
%TD*%
D10*
%TO.C,K15*%
X32600000Y-7000000D03*
X32600000Y-7000000D03*
D11*
X33020000Y-7000000D03*
X33020000Y-7000000D03*
D12*
X38100000Y-7000000D03*
X38100000Y-7000000D03*
D11*
X43180000Y-7000000D03*
X43180000Y-7000000D03*
D10*
X43600000Y-7000000D03*
X43600000Y-7000000D03*
D13*
X33000000Y-10900000D03*
D14*
X34290000Y-4460000D03*
D15*
X38100000Y-12900000D03*
D14*
X40640000Y-1920000D03*
D16*
X42000042Y-1459599D03*
%TD*%
D10*
%TO.C,K32*%
X52915307Y-52825600D03*
X52915307Y-52825600D03*
D11*
X53295956Y-53003099D03*
X53295956Y-53003099D03*
D12*
X57900000Y-55150000D03*
X57900000Y-55150000D03*
D11*
X62504044Y-57296901D03*
X62504044Y-57296901D03*
D10*
X62884693Y-57474400D03*
X62884693Y-57474400D03*
D24*
X51629619Y-56529247D03*
D14*
X55520418Y-51237803D03*
D25*
X55406552Y-60497216D03*
D14*
X62348923Y-51619407D03*
D26*
X63776113Y-51776920D03*
%TD*%
D10*
%TO.C,K11*%
X-43600000Y-17000000D03*
X-43600000Y-17000000D03*
D11*
X-43180000Y-17000000D03*
X-43180000Y-17000000D03*
D12*
X-38100000Y-17000000D03*
X-38100000Y-17000000D03*
D11*
X-33020000Y-17000000D03*
X-33020000Y-17000000D03*
D10*
X-32600000Y-17000000D03*
X-32600000Y-17000000D03*
D13*
X-43200000Y-20900000D03*
D14*
X-41910000Y-14460000D03*
D15*
X-38100000Y-22900000D03*
D14*
X-35560000Y-11920000D03*
D16*
X-34199958Y-11459599D03*
%TD*%
D27*
%TO.C,U1*%
X71035000Y21450000D03*
D11*
X71035000Y18910000D03*
X71035000Y16370000D03*
X71035000Y13830000D03*
X71035000Y11290000D03*
X71035000Y8750000D03*
X71035000Y6210000D03*
X71035000Y3670000D03*
X71035000Y1130000D03*
X71035000Y-1410000D03*
X71035000Y-3950000D03*
X71035000Y-6490000D03*
X71035000Y-9030000D03*
X71035000Y-11570000D03*
X71035000Y-14110000D03*
X71035000Y-16650000D03*
X71035000Y-19190000D03*
X71035000Y-21730000D03*
X71035000Y-24270000D03*
X71035000Y-26810000D03*
X55795000Y-26810000D03*
X55795000Y-24270000D03*
X55795000Y-21730000D03*
X55795000Y-19190000D03*
X55795000Y-16650000D03*
X55795000Y-14110000D03*
X55795000Y-11570000D03*
X55795000Y-9030000D03*
X55795000Y-6490000D03*
X55795000Y-3950000D03*
X55795000Y-1410000D03*
X55795000Y1130000D03*
X55795000Y3670000D03*
X55795000Y6210000D03*
X55795000Y8750000D03*
X55795000Y11290000D03*
X55795000Y13830000D03*
X55795000Y16370000D03*
X55795000Y18910000D03*
X55795000Y21450000D03*
%TD*%
D10*
%TO.C,K05*%
X32600000Y12050000D03*
X32600000Y12050000D03*
D11*
X33020000Y12050000D03*
X33020000Y12050000D03*
D12*
X38100000Y12050000D03*
X38100000Y12050000D03*
D11*
X43180000Y12050000D03*
X43180000Y12050000D03*
D10*
X43600000Y12050000D03*
X43600000Y12050000D03*
D13*
X33000000Y8150000D03*
D14*
X34290000Y14590000D03*
D15*
X38100000Y6150000D03*
D14*
X40640000Y17130000D03*
D16*
X42000042Y17590401D03*
%TD*%
D10*
%TO.C,K20*%
X-62650000Y-36050000D03*
X-62650000Y-36050000D03*
D11*
X-62230000Y-36050000D03*
X-62230000Y-36050000D03*
D12*
X-57150000Y-36050000D03*
X-57150000Y-36050000D03*
D11*
X-52070000Y-36050000D03*
X-52070000Y-36050000D03*
D10*
X-51650000Y-36050000D03*
X-51650000Y-36050000D03*
D13*
X-62250000Y-39950000D03*
D14*
X-60960000Y-33510000D03*
D15*
X-57150000Y-41950000D03*
D14*
X-54610000Y-30970000D03*
D16*
X-53249958Y-30509599D03*
%TD*%
D10*
%TO.C,K13*%
X-5500000Y0D03*
X-5500000Y0D03*
D11*
X-5080000Y0D03*
X-5080000Y0D03*
D12*
X0Y0D03*
X0Y0D03*
D11*
X5080000Y0D03*
X5080000Y0D03*
D10*
X5500000Y0D03*
X5500000Y0D03*
D13*
X-5100000Y-3900000D03*
D14*
X-3810000Y2540000D03*
D15*
X0Y-5900000D03*
D14*
X2540000Y5080000D03*
D16*
X3900042Y5540401D03*
%TD*%
D10*
%TO.C,K00*%
X-62650000Y2050000D03*
X-62650000Y2050000D03*
D11*
X-62230000Y2050000D03*
X-62230000Y2050000D03*
D12*
X-57150000Y2050000D03*
X-57150000Y2050000D03*
D11*
X-52070000Y2050000D03*
X-52070000Y2050000D03*
D10*
X-51650000Y2050000D03*
X-51650000Y2050000D03*
D13*
X-62250000Y-1850000D03*
D14*
X-60960000Y4590000D03*
D15*
X-57150000Y-3850000D03*
D14*
X-54610000Y7130000D03*
D16*
X-53249958Y7590401D03*
%TD*%
D28*
%TO.C,REF\u002A\u002A*%
X-9480000Y-12910000D03*
X9570000Y6140000D03*
X9570000Y-31960000D03*
X28620000Y-12910000D03*
%TD*%
D10*
%TO.C,K31*%
X31483557Y-47194935D03*
X31483557Y-47194935D03*
D11*
X31897177Y-47267867D03*
X31897177Y-47267867D03*
D12*
X36900000Y-48150000D03*
X36900000Y-48150000D03*
D11*
X41902823Y-49032133D03*
X41902823Y-49032133D03*
D10*
X42316443Y-49105065D03*
X42316443Y-49105065D03*
D29*
X31200253Y-51105145D03*
D14*
X33588949Y-44986989D03*
D30*
X35875476Y-53960366D03*
D14*
X40283544Y-43588243D03*
D31*
X41702872Y-43371006D03*
%TD*%
D32*
X-48624955Y-8974517D02*
X-48625000Y-25025000D01*
X-10673448Y26043104D02*
G75*
G02*
X-11910000Y24806548I-1236552J-4D01*
G01*
X66685000Y4640000D02*
G75*
G02*
X65685000Y3640000I-1000000J0D01*
G01*
X-47625000Y-25025000D02*
X-47624955Y-8974517D01*
X-46398448Y-46750000D02*
X-19400000Y-46750000D01*
X63630000Y-68110000D02*
X74248728Y-45663239D01*
X7610000Y-58540000D02*
G75*
G02*
X3789969Y-57090030I-380000J4755900D01*
G01*
X-48625000Y-28025000D02*
X-48625040Y-42523488D01*
X57485000Y10240000D02*
G75*
G02*
X58485000Y11240000I1000200J-200D01*
G01*
X57485000Y4640000D02*
X57485000Y10240000D01*
X31110000Y22759999D02*
G75*
G02*
X29900001Y23770000I0J1229801D01*
G01*
X-48125000Y-27525000D02*
G75*
G02*
X-47625000Y-28025000I0J-500000D01*
G01*
X65685000Y3640000D02*
X58485000Y3640000D01*
X-46408363Y12807822D02*
X-30964374Y12807822D01*
X73670000Y22760000D02*
X31110000Y22760000D01*
X-10673448Y28570000D02*
X-10673448Y26043104D01*
X-9436896Y29806552D02*
X9530000Y29806552D01*
X-47625040Y-42523488D02*
G75*
G02*
X-48125040Y-43023460I-499960J-12D01*
G01*
X66677893Y10240000D02*
X66685000Y4640000D01*
X12003104Y24750000D02*
X28690000Y24750000D01*
X-48624915Y8581270D02*
X-48624955Y-5974517D01*
X-48124915Y9081270D02*
G75*
G02*
X-47624930Y8581270I15J-499970D01*
G01*
X73670000Y22760000D02*
G75*
G02*
X74960028Y21510000I49000J-1240100D01*
G01*
X-28480000Y24806552D02*
X-11910000Y24806552D01*
X74960000Y-42840000D02*
G75*
G02*
X74248732Y-45663241I-6436300J120300D01*
G01*
X-48124955Y-6474517D02*
G75*
G02*
X-48625017Y-5974517I55J500117D01*
G01*
X-48125000Y-25525000D02*
G75*
G02*
X-48625000Y-25025000I0J500000D01*
G01*
X65677893Y11240000D02*
G75*
G02*
X66677900Y10240000I7J-1000000D01*
G01*
X-48625040Y-45523488D02*
G75*
G02*
X-48125040Y-45023560I499940J-12D01*
G01*
X-46398448Y-46750000D02*
G75*
G02*
X-47624940Y-45533448I-9852J1216600D01*
G01*
X-48625040Y-45523488D02*
G75*
G02*
X-49841592Y-46750100I-1216660J-9912D01*
G01*
X-48124915Y11081270D02*
G75*
G02*
X-48624933Y11591230I15J500130D01*
G01*
X-48124955Y-8474517D02*
G75*
G02*
X-47624917Y-8974517I-45J-500083D01*
G01*
X-29730000Y23570000D02*
G75*
G02*
X-28480000Y24806527I1236600J0D01*
G01*
X10766552Y28570000D02*
X10766552Y25980000D01*
X15940000Y-57820000D02*
X7610000Y-58540000D01*
X-47625040Y-42523488D02*
X-47625000Y-28025000D01*
X53910000Y-64960000D02*
X61613868Y-68641488D01*
X-66670000Y-46750000D02*
G75*
G02*
X-67896540Y-45533448I-9900J1216600D01*
G01*
X28690000Y24750000D02*
G75*
G02*
X29900008Y23770002I0J-1237000D01*
G01*
X-48624915Y8581270D02*
G75*
G02*
X-48124915Y9081215I499915J30D01*
G01*
X-67896552Y11570000D02*
G75*
G02*
X-66660000Y12806552I1236552J0D01*
G01*
X-29727822Y14044374D02*
G75*
G02*
X-30964374Y12807822I-1236578J26D01*
G01*
X58485000Y11240000D02*
X65677893Y11240000D01*
X-66660000Y12806552D02*
X-49851507Y12807782D01*
X12003104Y24750000D02*
G75*
G02*
X10766583Y25980000I-6504J1230000D01*
G01*
X-47624915Y11581270D02*
G75*
G02*
X-48124915Y11081215I-499985J-70D01*
G01*
X-47624955Y-5974517D02*
G75*
G02*
X-48124955Y-6474445I-500045J117D01*
G01*
X-49851507Y12807782D02*
G75*
G02*
X-48624978Y11591230I9907J-1216582D01*
G01*
X-48125040Y-45023488D02*
G75*
G02*
X-47624983Y-45533448I-60J-500212D01*
G01*
X-10673448Y28570000D02*
G75*
G02*
X-9436896Y29806548I1236548J0D01*
G01*
X-48125040Y-43023488D02*
G75*
G02*
X-48625088Y-42523488I40J500088D01*
G01*
X-47624915Y11581270D02*
G75*
G02*
X-46408363Y12807856I1216615J9930D01*
G01*
X58485000Y3640000D02*
G75*
G02*
X57485000Y4640000I10000J1010000D01*
G01*
X-29730000Y23570000D02*
X-29727822Y14044374D01*
X-19400000Y-46750000D02*
G75*
G02*
X3790002Y-57089998I809300J-29359600D01*
G01*
X9530000Y29806552D02*
G75*
G02*
X10766552Y28570000I0J-1236552D01*
G01*
X-49841592Y-46750040D02*
X-66670000Y-46750000D01*
X-47625000Y-25025000D02*
G75*
G02*
X-48125000Y-25525000I-500000J0D01*
G01*
X-48624955Y-8974517D02*
G75*
G02*
X-48124955Y-8474545I499955J17D01*
G01*
X-48625000Y-28025000D02*
G75*
G02*
X-48125000Y-27525000I500000J0D01*
G01*
X-47624955Y-5974517D02*
X-47624915Y8581270D01*
X74960000Y-42840000D02*
X74960000Y21510000D01*
X63630000Y-68110000D02*
G75*
G02*
X61613882Y-68641448I-1393000J1194600D01*
G01*
X-67896552Y-45533448D02*
X-67896552Y11570000D01*
X15940000Y-57820000D02*
G75*
G02*
X53910001Y-64959998I6272100J-71176300D01*
G01*
M02*
