M48
; DRILL file {KiCad 8.0.7} date 2025-01-04T10:37:15-0500
; FORMAT={-:-/ absolute / inch / decimal}
; #@! TF.CreationDate,2025-01-04T10:37:15-05:00
; #@! TF.GenerationSoftware,Kicad,Pcbnew,8.0.7
; #@! TF.FileFunction,NonPlated,1,2,NPTH
FMAT,2
INCH
; #@! TA.AperFunction,NonPlated,NPTH,ComponentDrill
T1C0.0472
; #@! TA.AperFunction,NonPlated,NPTH,ComponentDrill
T2C0.0669
; #@! TA.AperFunction,NonPlated,NPTH,ComponentDrill
T3C0.0709
; #@! TA.AperFunction,NonPlated,NPTH,ComponentDrill
T4C0.1929
%
G90
G05
T1
X2.6165Y-1.3512
X2.6165Y-1.4201
X2.8921Y-1.3512
X2.8921Y-1.4201
T2
X-2.45Y0.0807
X-2.45Y0.0807
X-2.45Y-0.6693
X-2.45Y-0.6693
X-2.45Y-1.4193
X-2.45Y-1.4193
X-2.05Y0.0807
X-2.05Y0.0807
X-2.05Y-0.6693
X-2.05Y-0.6693
X-2.05Y-1.4193
X-2.05Y-1.4193
X-1.7Y0.0807
X-1.7Y0.0807
X-1.7Y-0.6693
X-1.7Y-0.6693
X-1.7Y-1.4193
X-1.7Y-1.4193
X-1.3Y0.0807
X-1.3Y0.0807
X-1.3Y-0.6693
X-1.3Y-0.6693
X-1.3Y-1.4193
X-1.3Y-1.4193
X-0.95Y0.5531
X-0.95Y0.5531
X-0.95Y-0.1969
X-0.95Y-0.1969
X-0.95Y-0.9469
X-0.95Y-0.9469
X-0.55Y0.5531
X-0.55Y0.5531
X-0.55Y-0.1969
X-0.55Y-0.1969
X-0.55Y-0.9469
X-0.55Y-0.9469
X-0.2Y0.75
X-0.2Y0.75
X-0.2Y0.0
X-0.2Y0.0
X-0.2Y-0.75
X-0.2Y-0.75
X0.2Y0.75
X0.2Y0.75
X0.2Y0.0
X0.2Y0.0
X0.2Y-0.75
X0.2Y-0.75
X0.3874Y-1.8737
X0.3874Y-1.8737
X0.55Y0.5531
X0.55Y0.5531
X0.55Y-0.1969
X0.55Y-0.1969
X0.55Y-0.9469
X0.55Y-0.9469
X0.7859Y-1.8389
X0.7859Y-1.8389
X0.95Y0.5531
X0.95Y0.5531
X0.95Y-0.1969
X0.95Y-0.1969
X0.95Y-0.9469
X0.95Y-0.9469
X1.2558Y-1.8609
X1.2558Y-1.8609
X1.3Y0.4744
X1.3Y0.4744
X1.3Y-0.2756
X1.3Y-0.2756
X1.3Y-1.0256
X1.3Y-1.0256
X1.6497Y-1.9304
X1.6497Y-1.9304
X1.7Y0.4744
X1.7Y0.4744
X1.7Y-0.2756
X1.7Y-0.2756
X1.7Y-1.0256
X1.7Y-1.0256
X2.0983Y-2.0867
X2.0983Y-2.0867
X2.4608Y-2.2558
X2.4608Y-2.2558
T3
X-2.4665Y0.0807
X-2.4665Y0.0807
X-2.4665Y-0.6693
X-2.4665Y-0.6693
X-2.4665Y-1.4193
X-2.4665Y-1.4193
X-2.0335Y0.0807
X-2.0335Y0.0807
X-2.0335Y-0.6693
X-2.0335Y-0.6693
X-2.0335Y-1.4193
X-2.0335Y-1.4193
X-1.7165Y0.0807
X-1.7165Y0.0807
X-1.7165Y-0.6693
X-1.7165Y-0.6693
X-1.7165Y-1.4193
X-1.7165Y-1.4193
X-1.2835Y0.0807
X-1.2835Y0.0807
X-1.2835Y-0.6693
X-1.2835Y-0.6693
X-1.2835Y-1.4193
X-1.2835Y-1.4193
X-0.9665Y0.5531
X-0.9665Y0.5531
X-0.9665Y-0.1969
X-0.9665Y-0.1969
X-0.9665Y-0.9469
X-0.9665Y-0.9469
X-0.5335Y0.5531
X-0.5335Y0.5531
X-0.5335Y-0.1969
X-0.5335Y-0.1969
X-0.5335Y-0.9469
X-0.5335Y-0.9469
X-0.2165Y0.75
X-0.2165Y0.75
X-0.2165Y0.0
X-0.2165Y0.0
X-0.2165Y-0.75
X-0.2165Y-0.75
X0.2165Y0.75
X0.2165Y0.75
X0.2165Y0.0
X0.2165Y0.0
X0.2165Y-0.75
X0.2165Y-0.75
X0.3709Y-1.8752
X0.3709Y-1.8752
X0.5335Y0.5531
X0.5335Y0.5531
X0.5335Y-0.1969
X0.5335Y-0.1969
X0.5335Y-0.9469
X0.5335Y-0.9469
X0.8023Y-1.8374
X0.8023Y-1.8374
X0.9665Y0.5531
X0.9665Y0.5531
X0.9665Y-0.1969
X0.9665Y-0.1969
X0.9665Y-0.9469
X0.9665Y-0.9469
X1.2395Y-1.8581
X1.2395Y-1.8581
X1.2835Y0.4744
X1.2835Y0.4744
X1.2835Y-0.2756
X1.2835Y-0.2756
X1.2835Y-1.0256
X1.2835Y-1.0256
X1.666Y-1.9333
X1.666Y-1.9333
X1.7165Y0.4744
X1.7165Y0.4744
X1.7165Y-0.2756
X1.7165Y-0.2756
X1.7165Y-1.0256
X1.7165Y-1.0256
X2.0833Y-2.0797
X2.0833Y-2.0797
X2.4758Y-2.2628
X2.4758Y-2.2628
T4
X-2.25Y0.0807
X-2.25Y0.0807
X-2.25Y-0.6693
X-2.25Y-0.6693
X-2.25Y-1.4193
X-2.25Y-1.4193
X-1.5Y0.0807
X-1.5Y0.0807
X-1.5Y-0.6693
X-1.5Y-0.6693
X-1.5Y-1.4193
X-1.5Y-1.4193
X-0.75Y0.5531
X-0.75Y0.5531
X-0.75Y-0.1969
X-0.75Y-0.1969
X-0.75Y-0.9469
X-0.75Y-0.9469
X0.0Y0.75
X0.0Y0.75
X0.0Y0.0
X0.0Y0.0
X0.0Y-0.75
X0.0Y-0.75
X0.5866Y-1.8563
X0.5866Y-1.8563
X0.75Y0.5531
X0.75Y0.5531
X0.75Y-0.1969
X0.75Y-0.1969
X0.75Y-0.9469
X0.75Y-0.9469
X1.4528Y-1.8957
X1.4528Y-1.8957
X1.5Y0.4744
X1.5Y0.4744
X1.5Y-0.2756
X1.5Y-0.2756
X1.5Y-1.0256
X1.5Y-1.0256
X2.2795Y-2.1713
X2.2795Y-2.1713
M30
