%TF.GenerationSoftware,KiCad,Pcbnew,8.0.7*%
%TF.CreationDate,2025-01-04T10:34:35-05:00*%
%TF.ProjectId,Cantor_MX,43616e74-6f72-45f4-9d58-2e6b69636164,rev1.6*%
%TF.SameCoordinates,PX78114e0PY44b6550*%
%TF.FileFunction,Paste,Top*%
%TF.FilePolarity,Positive*%
%FSLAX46Y46*%
G04 Gerber Fmt 4.6, Leading zero omitted, Abs format (unit mm)*
G04 Created by KiCad (PCBNEW 8.0.7) date 2025-01-04 10:34:35*
%MOMM*%
%LPD*%
G01*
G04 APERTURE LIST*
%TA.AperFunction,Profile*%
%ADD10C,0.100000*%
%TD*%
G04 APERTURE END LIST*
D10*
X-48624955Y-8974517D02*
X-48625000Y-25025000D01*
X-10673448Y26043104D02*
G75*
G02*
X-11910000Y24806548I-1236552J-4D01*
G01*
X66685000Y4640000D02*
G75*
G02*
X65685000Y3640000I-1000000J0D01*
G01*
X-47625000Y-25025000D02*
X-47624955Y-8974517D01*
X-46398448Y-46750000D02*
X-19400000Y-46750000D01*
X63630000Y-68110000D02*
X74248728Y-45663239D01*
X7610000Y-58540000D02*
G75*
G02*
X3789969Y-57090030I-380000J4755900D01*
G01*
X-48625000Y-28025000D02*
X-48625040Y-42523488D01*
X57485000Y10240000D02*
G75*
G02*
X58485000Y11240000I1000200J-200D01*
G01*
X57485000Y4640000D02*
X57485000Y10240000D01*
X31110000Y22759999D02*
G75*
G02*
X29900001Y23770000I0J1229801D01*
G01*
X-48125000Y-27525000D02*
G75*
G02*
X-47625000Y-28025000I0J-500000D01*
G01*
X65685000Y3640000D02*
X58485000Y3640000D01*
X-46408363Y12807822D02*
X-30964374Y12807822D01*
X73670000Y22760000D02*
X31110000Y22760000D01*
X-10673448Y28570000D02*
X-10673448Y26043104D01*
X-9436896Y29806552D02*
X9530000Y29806552D01*
X-47625040Y-42523488D02*
G75*
G02*
X-48125040Y-43023460I-499960J-12D01*
G01*
X66677893Y10240000D02*
X66685000Y4640000D01*
X12003104Y24750000D02*
X28690000Y24750000D01*
X-48624915Y8581270D02*
X-48624955Y-5974517D01*
X-48124915Y9081270D02*
G75*
G02*
X-47624930Y8581270I15J-499970D01*
G01*
X73670000Y22760000D02*
G75*
G02*
X74960028Y21510000I49000J-1240100D01*
G01*
X-28480000Y24806552D02*
X-11910000Y24806552D01*
X74960000Y-42840000D02*
G75*
G02*
X74248732Y-45663241I-6436300J120300D01*
G01*
X-48124955Y-6474517D02*
G75*
G02*
X-48625017Y-5974517I55J500117D01*
G01*
X-48125000Y-25525000D02*
G75*
G02*
X-48625000Y-25025000I0J500000D01*
G01*
X65677893Y11240000D02*
G75*
G02*
X66677900Y10240000I7J-1000000D01*
G01*
X-48625040Y-45523488D02*
G75*
G02*
X-48125040Y-45023560I499940J-12D01*
G01*
X-46398448Y-46750000D02*
G75*
G02*
X-47624940Y-45533448I-9852J1216600D01*
G01*
X-48625040Y-45523488D02*
G75*
G02*
X-49841592Y-46750100I-1216660J-9912D01*
G01*
X-48124915Y11081270D02*
G75*
G02*
X-48624933Y11591230I15J500130D01*
G01*
X-48124955Y-8474517D02*
G75*
G02*
X-47624917Y-8974517I-45J-500083D01*
G01*
X-29730000Y23570000D02*
G75*
G02*
X-28480000Y24806527I1236600J0D01*
G01*
X10766552Y28570000D02*
X10766552Y25980000D01*
X15940000Y-57820000D02*
X7610000Y-58540000D01*
X-47625040Y-42523488D02*
X-47625000Y-28025000D01*
X53910000Y-64960000D02*
X61613868Y-68641488D01*
X-66670000Y-46750000D02*
G75*
G02*
X-67896540Y-45533448I-9900J1216600D01*
G01*
X28690000Y24750000D02*
G75*
G02*
X29900008Y23770002I0J-1237000D01*
G01*
X-48624915Y8581270D02*
G75*
G02*
X-48124915Y9081215I499915J30D01*
G01*
X-67896552Y11570000D02*
G75*
G02*
X-66660000Y12806552I1236552J0D01*
G01*
X-29727822Y14044374D02*
G75*
G02*
X-30964374Y12807822I-1236578J26D01*
G01*
X58485000Y11240000D02*
X65677893Y11240000D01*
X-66660000Y12806552D02*
X-49851507Y12807782D01*
X12003104Y24750000D02*
G75*
G02*
X10766583Y25980000I-6504J1230000D01*
G01*
X-47624915Y11581270D02*
G75*
G02*
X-48124915Y11081215I-499985J-70D01*
G01*
X-47624955Y-5974517D02*
G75*
G02*
X-48124955Y-6474445I-500045J117D01*
G01*
X-49851507Y12807782D02*
G75*
G02*
X-48624978Y11591230I9907J-1216582D01*
G01*
X-48125040Y-45023488D02*
G75*
G02*
X-47624983Y-45533448I-60J-500212D01*
G01*
X-10673448Y28570000D02*
G75*
G02*
X-9436896Y29806548I1236548J0D01*
G01*
X-48125040Y-43023488D02*
G75*
G02*
X-48625088Y-42523488I40J500088D01*
G01*
X-47624915Y11581270D02*
G75*
G02*
X-46408363Y12807856I1216615J9930D01*
G01*
X58485000Y3640000D02*
G75*
G02*
X57485000Y4640000I10000J1010000D01*
G01*
X-29730000Y23570000D02*
X-29727822Y14044374D01*
X-19400000Y-46750000D02*
G75*
G02*
X3790002Y-57089998I809300J-29359600D01*
G01*
X9530000Y29806552D02*
G75*
G02*
X10766552Y28570000I0J-1236552D01*
G01*
X-49841592Y-46750040D02*
X-66670000Y-46750000D01*
X-47625000Y-25025000D02*
G75*
G02*
X-48125000Y-25525000I-500000J0D01*
G01*
X-48624955Y-8974517D02*
G75*
G02*
X-48124955Y-8474545I499955J17D01*
G01*
X-48625000Y-28025000D02*
G75*
G02*
X-48125000Y-27525000I500000J0D01*
G01*
X-47624955Y-5974517D02*
X-47624915Y8581270D01*
X74960000Y-42840000D02*
X74960000Y21510000D01*
X63630000Y-68110000D02*
G75*
G02*
X61613882Y-68641448I-1393000J1194600D01*
G01*
X-67896552Y-45533448D02*
X-67896552Y11570000D01*
X15940000Y-57820000D02*
G75*
G02*
X53910001Y-64959998I6272100J-71176300D01*
G01*
M02*
