M48
; DRILL file {KiCad 8.0.7} date 2025-01-04T10:37:15-0500
; FORMAT={-:-/ absolute / inch / decimal}
; #@! TF.CreationDate,2025-01-04T10:37:15-05:00
; #@! TF.GenerationSoftware,Kicad,Pcbnew,8.0.7
; #@! TF.FileFunction,Plated,1,2,PTH
FMAT,2
INCH
; #@! TA.AperFunction,Plated,PTH,ViaDrill
T1C0.0118
; #@! TA.AperFunction,Plated,PTH,ComponentDrill
T2C0.0118
; #@! TA.AperFunction,Plated,PTH,ComponentDrill
T3C0.0157
; #@! TA.AperFunction,Plated,PTH,ComponentDrill
T4C0.0394
; #@! TA.AperFunction,Plated,PTH,ComponentDrill
T5C0.0472
; #@! TA.AperFunction,Plated,PTH,ComponentDrill
T6C0.0866
%
G90
G05
T1
X2.5815Y0.1195
T4
X2.0919Y0.8437
X2.0919Y0.7437
X2.0919Y0.6437
X2.0919Y0.5437
X2.0919Y0.4437
X2.0919Y0.3437
X2.0919Y0.2437
X2.0919Y0.1437
X2.0919Y0.0437
X2.0919Y-0.0563
X2.0919Y-0.1563
X2.0919Y-0.2563
X2.0919Y-0.3563
X2.0919Y-0.4563
X2.0919Y-0.5563
X2.0919Y-0.6563
X2.0919Y-0.7563
X2.0919Y-0.8563
X2.0919Y-0.9563
X2.0919Y-1.0563
X2.1967Y0.8445
X2.1967Y0.7445
X2.1967Y0.6445
X2.1967Y0.5445
X2.1967Y0.4445
X2.1967Y0.3445
X2.1967Y0.2445
X2.1967Y0.1445
X2.1967Y0.0445
X2.1967Y-0.0555
X2.1967Y-0.1555
X2.1967Y-0.2555
X2.1967Y-0.3555
X2.1967Y-0.4555
X2.1967Y-0.5555
X2.1967Y-0.6555
X2.1967Y-0.7555
X2.1967Y-0.8555
X2.1967Y-0.9555
X2.1967Y-1.0555
X2.6919Y0.8437
X2.6919Y0.7437
X2.6919Y0.6437
X2.6919Y0.5437
X2.6919Y0.4437
X2.6919Y0.3437
X2.6919Y0.2437
X2.6919Y0.1437
X2.6919Y0.0437
X2.6919Y-0.0563
X2.6919Y-0.1563
X2.6919Y-0.2563
X2.6919Y-0.3563
X2.6919Y-0.4563
X2.6919Y-0.5563
X2.6919Y-0.6563
X2.6919Y-0.7563
X2.6919Y-0.8563
X2.6919Y-0.9563
X2.6919Y-1.0563
X2.7967Y0.8445
X2.7967Y0.7445
X2.7967Y0.6445
X2.7967Y0.5445
X2.7967Y0.4445
X2.7967Y0.3445
X2.7967Y0.2445
X2.7967Y0.1445
X2.7967Y0.0445
X2.7967Y-0.0555
X2.7967Y-0.1555
X2.7967Y-0.2555
X2.7967Y-0.3555
X2.7967Y-0.4555
X2.7967Y-0.5555
X2.7967Y-0.6555
X2.7967Y-0.7555
X2.7967Y-0.8555
X2.7967Y-0.9555
X2.7967Y-1.0555
T5
X-2.4Y0.1807
X-2.4Y-0.5693
X-2.4Y-1.3193
X-2.35Y0.2807
X-2.35Y-0.4693
X-2.35Y-1.2193
X-2.15Y0.2807
X-2.15Y-0.4693
X-2.15Y-1.2193
X-2.1Y0.1807
X-2.1Y-0.5693
X-2.1Y-1.3193
X-1.65Y0.1807
X-1.65Y-0.5693
X-1.65Y-1.3193
X-1.6Y0.2807
X-1.6Y-0.4693
X-1.6Y-1.2193
X-1.4Y0.2807
X-1.4Y-0.4693
X-1.4Y-1.2193
X-1.35Y0.1807
X-1.35Y-0.5693
X-1.35Y-1.3193
X-0.9Y0.6531
X-0.9Y-0.0969
X-0.9Y-0.8469
X-0.85Y0.7531
X-0.85Y0.0031
X-0.85Y-0.7469
X-0.65Y0.7531
X-0.65Y0.0031
X-0.65Y-0.7469
X-0.6Y0.6531
X-0.6Y-0.0969
X-0.6Y-0.8469
X-0.15Y0.85
X-0.15Y0.1
X-0.15Y-0.65
X-0.1Y0.95
X-0.1Y0.2
X-0.1Y-0.55
X0.1Y0.95
X0.1Y0.2
X0.1Y-0.55
X0.15Y0.85
X0.15Y0.1
X0.15Y-0.65
X0.4285Y-1.7698
X0.4696Y-1.6658
X0.6Y0.6531
X0.6Y-0.0969
X0.6Y-0.8469
X0.65Y0.7531
X0.65Y0.0031
X0.65Y-0.7469
X0.6688Y-1.6483
X0.7273Y-1.7436
X0.85Y0.7531
X0.85Y0.0031
X0.85Y-0.7469
X0.9Y0.6531
X0.9Y-0.0969
X0.9Y-0.8469
X1.3224Y-1.7711
X1.35Y0.5744
X1.35Y-0.1756
X1.35Y-0.9256
X1.389Y-1.6813
X1.4Y0.6744
X1.4Y-0.0756
X1.4Y-0.8256
X1.586Y-1.7161
X1.6Y0.6744
X1.6Y-0.0756
X1.6Y-0.8256
X1.6178Y-1.8232
X1.65Y0.5744
X1.65Y-0.1756
X1.65Y-0.9256
X2.1858Y-2.0172
X2.2734Y-1.9477
X2.4547Y-2.0323
X2.4577Y-2.144
T6
X-0.3732Y-0.5083
X0.3768Y0.2417
X0.3768Y-1.2583
X1.1268Y-0.5083
T2
G00X-2.4606Y0.2993
M15
G01X-2.4331Y0.2991
M16
G05
G00X-2.4606Y-0.4507
M15
G01X-2.4331Y-0.4509
M16
G05
G00X-2.4606Y-1.2007
M15
G01X-2.4331Y-1.2009
M16
G05
G00X-2.2638Y-0.1516
M15
G01X-2.2362Y-0.1516
M16
G05
G00X-2.2638Y-0.1516
M15
G01X-2.2362Y-0.1516
M16
G05
G00X-2.2638Y-0.9016
M15
G01X-2.2362Y-0.9016
M16
G05
G00X-2.2638Y-0.9016
M15
G01X-2.2362Y-0.9016
M16
G05
G00X-2.2638Y-1.6516
M15
G01X-2.2362Y-1.6516
M16
G05
G00X-2.2638Y-1.6516
M15
G01X-2.2362Y-1.6516
M16
G05
G00X-2.0669Y0.2991
M15
G01X-2.0394Y0.2993
M16
G05
G00X-2.0669Y-0.4509
M15
G01X-2.0394Y-0.4507
M16
G05
G00X-2.0669Y-1.2009
M15
G01X-2.0394Y-1.2007
M16
G05
G00X-1.7106Y0.2993
M15
G01X-1.6831Y0.2991
M16
G05
G00X-1.7106Y-0.4507
M15
G01X-1.6831Y-0.4509
M16
G05
G00X-1.7106Y-1.2007
M15
G01X-1.6831Y-1.2009
M16
G05
G00X-1.5138Y-0.1516
M15
G01X-1.4862Y-0.1516
M16
G05
G00X-1.5138Y-0.1516
M15
G01X-1.4862Y-0.1516
M16
G05
G00X-1.5138Y-0.9016
M15
G01X-1.4862Y-0.9016
M16
G05
G00X-1.5138Y-0.9016
M15
G01X-1.4862Y-0.9016
M16
G05
G00X-1.5138Y-1.6516
M15
G01X-1.4862Y-1.6516
M16
G05
G00X-1.5138Y-1.6516
M15
G01X-1.4862Y-1.6516
M16
G05
G00X-1.3169Y0.2991
M15
G01X-1.2894Y0.2993
M16
G05
G00X-1.3169Y-0.4509
M15
G01X-1.2894Y-0.4507
M16
G05
G00X-1.3169Y-1.2009
M15
G01X-1.2894Y-1.2007
M16
G05
G00X-0.9606Y0.7718
M15
G01X-0.9331Y0.7715
M16
G05
G00X-0.9606Y0.0218
M15
G01X-0.9331Y0.0215
M16
G05
G00X-0.9606Y-0.7282
M15
G01X-0.9331Y-0.7285
M16
G05
G00X-0.7638Y0.3209
M15
G01X-0.7362Y0.3209
M16
G05
G00X-0.7638Y0.3209
M15
G01X-0.7362Y0.3209
M16
G05
G00X-0.7638Y-0.4291
M15
G01X-0.7362Y-0.4291
M16
G05
G00X-0.7638Y-0.4291
M15
G01X-0.7362Y-0.4291
M16
G05
G00X-0.7638Y-1.1791
M15
G01X-0.7362Y-1.1791
M16
G05
G00X-0.7638Y-1.1791
M15
G01X-0.7362Y-1.1791
M16
G05
G00X-0.5669Y0.7715
M15
G01X-0.5394Y0.7718
M16
G05
G00X-0.5669Y0.0215
M15
G01X-0.5394Y0.0218
M16
G05
G00X-0.5669Y-0.7285
M15
G01X-0.5394Y-0.7282
M16
G05
G00X-0.2106Y0.9686
M15
G01X-0.1831Y0.9684
M16
G05
G00X-0.2106Y0.2186
M15
G01X-0.1831Y0.2184
M16
G05
G00X-0.2106Y-0.5314
M15
G01X-0.1831Y-0.5316
M16
G05
G00X-0.0138Y0.5177
M15
G01X0.0138Y0.5177
M16
G05
G00X-0.0138Y0.5177
M15
G01X0.0138Y0.5177
M16
G05
G00X-0.0138Y-0.2323
M15
G01X0.0138Y-0.2323
M16
G05
G00X-0.0138Y-0.2323
M15
G01X0.0138Y-0.2323
M16
G05
G00X-0.0138Y-0.9823
M15
G01X0.0138Y-0.9823
M16
G05
G00X-0.0138Y-0.9823
M15
G01X0.0138Y-0.9823
M16
G05
G00X0.1831Y0.9684
M15
G01X0.2106Y0.9686
M16
G05
G00X0.1831Y0.2184
M15
G01X0.2106Y0.2186
M16
G05
G00X0.1831Y-0.5316
M15
G01X0.2106Y-0.5314
M16
G05
G00X0.3577Y-1.6569
M15
G01X0.3852Y-1.6547
M16
G05
G00X0.5394Y0.7718
M15
G01X0.5669Y0.7715
M16
G05
G00X0.5394Y0.0218
M15
G01X0.5669Y0.0215
M16
G05
G00X0.5394Y-0.7282
M15
G01X0.5669Y-0.7285
M16
G05
G00X0.5931Y-2.0889
M15
G01X0.6206Y-2.0865
M16
G05
G00X0.5931Y-2.0889
M15
G01X0.6206Y-2.0865
M16
G05
G00X0.7362Y0.3209
M15
G01X0.7638Y0.3209
M16
G05
G00X0.7362Y0.3209
M15
G01X0.7638Y0.3209
M16
G05
G00X0.7362Y-0.4291
M15
G01X0.7638Y-0.4291
M16
G05
G00X0.7362Y-0.4291
M15
G01X0.7638Y-0.4291
M16
G05
G00X0.7362Y-1.1791
M15
G01X0.7638Y-1.1791
M16
G05
G00X0.7362Y-1.1791
M15
G01X0.7638Y-1.1791
M16
G05
G00X0.75Y-1.6228
M15
G01X0.7774Y-1.6201
M16
G05
G00X0.9331Y0.7715
M15
G01X0.9606Y0.7718
M16
G05
G00X0.9331Y0.0215
M15
G01X0.9606Y0.0218
M16
G05
G00X0.9331Y-0.7285
M15
G01X0.9606Y-0.7282
M16
G05
G00X1.2833Y-1.6438
M15
G01X1.3104Y-1.6488
M16
G05
G00X1.2894Y0.693
M15
G01X1.3169Y0.6928
M16
G05
G00X1.2894Y-0.057
M15
G01X1.3169Y-0.0572
M16
G05
G00X1.2894Y-0.807
M15
G01X1.3169Y-0.8072
M16
G05
G00X1.3989Y-2.122
M15
G01X1.426Y-2.1268
M16
G05
G00X1.3989Y-2.122
M15
G01X1.426Y-2.1268
M16
G05
G00X1.4862Y0.2421
M15
G01X1.5138Y0.2421
M16
G05
G00X1.4862Y0.2421
M15
G01X1.5138Y0.2421
M16
G05
G00X1.4862Y-0.5079
M15
G01X1.5138Y-0.5079
M16
G05
G00X1.4862Y-0.5079
M15
G01X1.5138Y-0.5079
M16
G05
G00X1.4862Y-1.2579
M15
G01X1.5138Y-1.2579
M16
G05
G00X1.4862Y-1.2579
M15
G01X1.5138Y-1.2579
M16
G05
G00X1.671Y-1.7124
M15
G01X1.6981Y-1.7169
M16
G05
G00X1.6831Y0.6928
M15
G01X1.7106Y0.693
M16
G05
G00X1.6831Y-0.0572
M15
G01X1.7106Y-0.057
M16
G05
G00X1.6831Y-0.8072
M15
G01X1.7106Y-0.807
M16
G05
G00X2.1689Y-2.376
M15
G01X2.1938Y-2.3876
M16
G05
G00X2.1689Y-2.376
M15
G01X2.1938Y-2.3876
M16
G05
G00X2.181Y-1.8841
M15
G01X2.2059Y-1.896
M16
G05
G00X2.5377Y-2.0507
M15
G01X2.5628Y-2.0621
M16
G05
T3
G00X-2.4626Y-0.0728
M15
G01X-2.439Y-0.0728
M16
G05
G00X-2.4626Y-0.8228
M15
G01X-2.439Y-0.8228
M16
G05
G00X-2.4626Y-1.5728
M15
G01X-2.439Y-1.5728
M16
G05
G00X-2.061Y-0.0728
M15
G01X-2.0374Y-0.0728
M16
G05
G00X-2.061Y-0.8228
M15
G01X-2.0374Y-0.8228
M16
G05
G00X-2.061Y-1.5728
M15
G01X-2.0374Y-1.5728
M16
G05
G00X-1.7126Y-0.0728
M15
G01X-1.689Y-0.0728
M16
G05
G00X-1.7126Y-0.8228
M15
G01X-1.689Y-0.8228
M16
G05
G00X-1.7126Y-1.5728
M15
G01X-1.689Y-1.5728
M16
G05
G00X-1.311Y-0.0728
M15
G01X-1.2874Y-0.0728
M16
G05
G00X-1.311Y-0.8228
M15
G01X-1.2874Y-0.8228
M16
G05
G00X-1.311Y-1.5728
M15
G01X-1.2874Y-1.5728
M16
G05
G00X-0.9626Y0.3996
M15
G01X-0.939Y0.3996
M16
G05
G00X-0.9626Y-0.3504
M15
G01X-0.939Y-0.3504
M16
G05
G00X-0.9626Y-1.1004
M15
G01X-0.939Y-1.1004
M16
G05
G00X-0.561Y0.3996
M15
G01X-0.5374Y0.3996
M16
G05
G00X-0.561Y-0.3504
M15
G01X-0.5374Y-0.3504
M16
G05
G00X-0.561Y-1.1004
M15
G01X-0.5374Y-1.1004
M16
G05
G00X-0.2126Y0.5965
M15
G01X-0.189Y0.5965
M16
G05
G00X-0.2126Y-0.1535
M15
G01X-0.189Y-0.1535
M16
G05
G00X-0.2126Y-0.9035
M15
G01X-0.189Y-0.9035
M16
G05
G00X0.189Y0.5965
M15
G01X0.2126Y0.5965
M16
G05
G00X0.189Y-0.1535
M15
G01X0.2126Y-0.1535
M16
G05
G00X0.189Y-0.9035
M15
G01X0.2126Y-0.9035
M16
G05
G00X0.3882Y-2.0278
M15
G01X0.4117Y-2.0257
M16
G05
G00X0.5374Y0.3996
M15
G01X0.561Y0.3996
M16
G05
G00X0.5374Y-0.3504
M15
G01X0.561Y-0.3504
M16
G05
G00X0.5374Y-1.1004
M15
G01X0.561Y-1.1004
M16
G05
G00X0.7883Y-1.9928
M15
G01X0.8118Y-1.9907
M16
G05
G00X0.939Y0.3996
M15
G01X0.9626Y0.3996
M16
G05
G00X0.939Y-0.3504
M15
G01X0.9626Y-0.3504
M16
G05
G00X0.939Y-1.1004
M15
G01X0.9626Y-1.1004
M16
G05
G00X1.2167Y-2.01
M15
G01X1.24Y-2.0141
M16
G05
G00X1.2874Y0.3209
M15
G01X1.311Y0.3209
M16
G05
G00X1.2874Y-0.4291
M15
G01X1.311Y-0.4291
M16
G05
G00X1.2874Y-1.1791
M15
G01X1.311Y-1.1791
M16
G05
G00X1.6122Y-2.0797
M15
G01X1.6355Y-2.0838
M16
G05
G00X1.689Y0.3209
M15
G01X1.7126Y0.3209
M16
G05
G00X1.689Y-0.4291
M15
G01X1.7126Y-0.4291
M16
G05
G00X1.689Y-1.1791
M15
G01X1.7126Y-1.1791
M16
G05
G00X2.022Y-2.2206
M15
G01X2.0434Y-2.2306
M16
G05
G00X2.3859Y-2.3903
M15
G01X2.4073Y-2.4003
M16
G05
T4
G00X2.4965Y-1.3374
M15
G01X2.4768Y-1.3374
M16
G05
G00X2.4965Y-1.4339
M15
G01X2.4768Y-1.4339
M16
G05
G00X2.5555Y-1.2685
M15
G01X2.5358Y-1.2685
M16
G05
G00X2.5555Y-1.5028
M15
G01X2.5358Y-1.5028
M16
G05
G00X2.713Y-1.2685
M15
G01X2.6933Y-1.2685
M16
G05
G00X2.713Y-1.5028
M15
G01X2.6933Y-1.5028
M16
G05
G00X2.8311Y-1.2685
M15
G01X2.8114Y-1.2685
M16
G05
G00X2.8311Y-1.5028
M15
G01X2.8114Y-1.5028
M16
G05
M30
